<svg viewBox="0 0 1024 1024" xmlns="http://www.w3.org/2000/svg" xmlns:xlink="http://www.w3.org/1999/xlink"><radialGradient id="a" cx="50%" cy="35%" r="70%"><stop offset="0" stop-color="#0e2659"/><stop offset=".65" stop-color="#06163d"/><stop offset="1" stop-color="#000a1f"/></radialGradient><rect fill="url(#a)" height="1024" rx="232" width="1024"/><circle cx="512" cy="512" fill="none" r="280" stroke="#22d3ee" stroke-opacity=".25" stroke-width="64"/><circle cx="512" cy="512" fill="none" r="280" stroke="#67e8f9" stroke-width="28"/><circle cx="512" cy="512" fill="#0c1e44" r="260"/><g stroke-linecap="round"><g stroke="#22d3ee" stroke-opacity=".55" stroke-width="14" transform="translate(512 512)"><path d="m0-352v30" transform="matrix(-.8660254 -.5 .5 -.8660254 0 0)"/><path d="m0-352v30" transform="matrix(-.5 -.8660254 .8660254 -.5 0 0)"/><path d="m0-352v30" transform="rotate(-90)"/><path d="m0-352v30" transform="matrix(.5 -.8660254 .8660254 .5 0 0)"/><path d="m0-352v30" transform="matrix(.8660254 -.5 .5 .8660254 0 0)"/><path d="m0-352v30" transform="matrix(.8660254 .5 -.5 .8660254 0 0)"/><path d="m0-352v30" transform="matrix(.5 .8660254 -.8660254 .5 0 0)"/><path d="m0-352v30" transform="rotate(90)"/><path d="m0-352v30" transform="matrix(-.5 .8660254 -.8660254 -.5 0 0)"/><path d="m0-352v30" transform="matrix(-.8660254 .5 -.5 -.8660254 0 0)"/></g><path d="m512 512v-220" stroke="#22d3ee" stroke-opacity=".4" stroke-width="48"/><path d="m512 512v-220" stroke="#67e8f9" stroke-width="22"/><path d="m512 552v-240" stroke="#fff" stroke-opacity=".75" stroke-width="8"/></g><circle cx="512" cy="512" fill="#0a1f4d" r="36" stroke="#22d3ee" stroke-width="6"/></svg>