<?xml version="1.0" encoding="UTF-8"?>
<!-- Generator: visioncortex VTracer 0.6.12 -->
<svg xmlns="http://www.w3.org/2000/svg" viewBox="0 0 1328 456" preserveAspectRatio="xMidYMid meet">
<path d="M0 0 C1.08023438 0.52722656 2.16046875 1.05445313 3.2734375 1.59765625 C10.56592065 5.3288918 16.81770655 9.64801457 23 15 C23.53987549 15.43489746 24.07975098 15.86979492 24.63598633 16.31787109 C29.07887849 19.95667221 32.55026448 23.87415273 35.9375 28.5 C36.45546143 29.20213623 36.97342285 29.90427246 37.50708008 30.62768555 C44.3118619 40.00633511 49.63904099 50.0315354 54.6875 60.4375 C55.04416748 61.16364502 55.40083496 61.88979004 55.76831055 62.63793945 C70.26923816 93.30614405 70.77614458 125.69629098 70.30859375 158.9453125 C70.29466583 159.97217163 70.28073792 160.99903076 70.26638794 162.05700684 C70.17202837 166.81105072 69.9176761 171.31948701 69 176 C68.8886869 178.08129609 68.82559189 180.16577049 68.8125 182.25 C68.79832031 183.28640625 68.78414062 184.3228125 68.76953125 185.390625 C69 188 69 188 71 190 C74.75074538 188.49970185 74.75074538 188.49970185 75.81640625 186.36328125 C77.52670376 182.94833079 79.79390772 180.00143223 82.0625 176.9375 C82.55564697 176.27137695 83.04879395 175.60525391 83.55688477 174.91894531 C95.53237333 158.8382925 108.13489214 146.74450352 125 136 C125.3005127 135.80841309 125.3005127 135.80841309 126.82128906 134.83886719 C156.43586523 116.26981692 197.11599898 109.31972553 231.3125 117.0625 C234.90791508 117.94279337 238.45451212 118.9374618 242 120 C242.93183105 120.27295898 243.86366211 120.54591797 244.82373047 120.82714844 C255.09575827 123.88928956 264.90814939 127.2167627 274 133 C275.11503906 133.67933594 276.23007812 134.35867187 277.37890625 135.05859375 C285.08461057 139.81489135 292.1478631 145.06148136 299 151 C299.83015625 151.69609375 300.6603125 152.3921875 301.515625 153.109375 C315.86425063 165.47265621 326.24512732 180.66743732 334.3503418 197.67114258 C335.96724352 201.05248136 337.60543878 204.10595975 340 207 C341.85546875 206.703125 341.85546875 206.703125 344 206 C347.20805612 201.49138059 349.68128511 196.70670273 352.25 191.8125 C357.73226104 181.5480935 364.48628676 172.30589382 371.96875 163.4140625 C373.14445296 162.01678475 374.3017707 160.60266858 375.40625 159.1484375 C390.99964346 139.08620567 418.84735881 126.24941589 442.66308594 119.64941406 C444.15516779 119.23477368 445.64339723 118.80582821 447.12597656 118.35839844 C469.17991971 111.79113174 496.99419813 112.51376769 519 119 C519.75442383 119.21430664 520.50884766 119.42861328 521.28613281 119.64941406 C539.28115404 124.86349233 554.98985902 132.83948858 570 144 C570.92425781 144.67933594 571.84851563 145.35867187 572.80078125 146.05859375 C583.33542397 154.14019367 592.0967035 163.63520644 599.94140625 174.28515625 C602.85822376 178.13181311 604.28384815 179.94814425 609 181 C608.99333817 180.26767151 608.98667633 179.53534302 608.97981262 178.78082275 C608.91898475 171.78219892 608.87366925 164.78367098 608.84456348 157.78485489 C608.82909554 154.18913487 608.80821674 150.59363832 608.77368164 146.99804688 C608.57409286 125.61175733 609.54486503 105.5700635 615.6875 84.9375 C616.03490234 83.75140137 616.38230469 82.56530273 616.74023438 81.34326172 C619.78199772 71.22734335 623.37074028 61.49656924 628 52 C628.30341309 51.37528809 628.60682617 50.75057617 628.91943359 50.10693359 C635.09854875 37.71869139 644.05854003 26.59058491 654 17 C654.5878125 16.42636719 655.175625 15.85273437 655.78125 15.26171875 C674.2623214 -1.66526255 697.8086626 -9.20363251 722.54492188 -8.17041016 C747.68903941 -6.42512435 770.83794988 4.37342451 787.61279297 23.33789062 C796.44904949 33.92522509 808.92486114 48.92395124 810 63 C808.60713986 70.9393028 804.60226554 74.99743629 798.3125 79.5 C780.96500618 91.18618596 780.96500618 91.18618596 769 90 C762.31532767 86.97297857 758.86689582 80.78469935 754.90234375 74.87109375 C747.26548925 63.52035825 739.56743848 54.89784531 726.625 49.625 C716.32952274 47.84991771 707.47370691 48.57758693 698.70703125 54.56640625 C697.34759974 55.59402752 696.00616246 56.64627521 694.69140625 57.73046875 C693 59 693 59 690 60 C689.08203125 61.6484375 689.08203125 61.6484375 688 64 C686.96705971 65.61130567 685.9324521 67.22166608 684.87817383 68.8190918 C678.8763797 77.92207953 674.2589347 86.72962756 670.875 97.125 C670.63305908 97.85807373 670.39111816 98.59114746 670.1418457 99.34643555 C665.42874887 114.4777869 664.42652959 129.07599516 664.5 144.8125 C664.50071503 145.30697632 664.50071503 145.30697632 664.5043335 147.80932617 C664.56232284 164.04503271 665.87363856 179.23434017 670 195 C670.22461914 195.90395508 670.44923828 196.80791016 670.68066406 197.73925781 C680.94106579 238.64644896 700.00603412 274.9259656 726 308 C726.66257812 308.84304688 727.32515625 309.68609375 728.0078125 310.5546875 C729.98962506 313.04943978 731.99262314 315.52579131 734 318 C734.34289062 318.43054688 734.34289062 318.43054688 736.078125 320.609375 C749.78113329 337.66419826 765.31120143 354.62127414 782.58203125 368.08984375 C786.10688449 370.87442087 789.39285674 373.90394296 792.70703125 376.93359375 C794.74152255 378.76706206 796.82000076 380.51427211 798.9375 382.25 C802.7205918 385.49900825 804.5660356 388.38813222 805.875 393.25 C806.20088024 403.0264071 800.80815572 409.58680721 795 417 C794.58878906 417.60070312 794.17757812 418.20140625 793.75390625 418.8203125 C789.56285433 424.68471482 782.46684635 428.24359716 775.5625 429.75 C764.22317101 427.36277284 756.0130737 420.13283455 747.70068359 412.54931641 C745.6505129 410.68161856 743.57121667 408.8484724 741.48754883 407.01831055 C737.07033773 403.01442834 732.9405048 398.91870935 728.9609375 394.4765625 C724.93023758 390.02537429 720.78829843 385.71542694 716.51953125 381.4921875 C715.97047623 380.94866638 715.4214212 380.40514526 714.85572815 379.84515381 C712.61044158 377.62714721 710.36135264 375.41308466 708.10766602 373.20361328 C701.23763464 366.45892223 694.85390026 359.66914324 689 352 C687.77532903 350.49632726 686.54665237 348.9959006 685.3125 347.5 C676.24897425 336.16612362 667.84773256 324.20381738 660 312 C659.39285156 311.071875 658.78570313 310.14375 658.16015625 309.1875 C652.4681427 300.24789589 647.67258401 290.87255726 642.83203125 281.453125 C642.35588379 280.53853516 641.87973633 279.62394531 641.38916016 278.68164062 C640.47572764 276.91834664 639.57899525 275.14628274 638.70068359 273.36523438 C638.2877002 272.55892578 637.8747168 271.75261719 637.44921875 270.921875 C637.27241577 270.56657715 637.27241577 270.56657715 636.37768555 268.76855469 C634.57412629 266.45329981 632.7512884 265.88494577 630 265 C629.9498877 265.39735352 629.9498877 265.39735352 629.69628906 267.40820312 C624.59732553 307.34430302 613.31090737 339.37612301 585 369 C584.21367188 369.82757813 583.42734375 370.65515625 582.6171875 371.5078125 C568.18623341 386.34102315 568.18623341 386.34102315 560.6328125 387.30078125 C552.64798129 387.33809355 548.4737864 385.57678293 542.6875 380 C538.69069529 375.86330712 535.04460505 371.50592078 531.44921875 367.01953125 C528.69474535 363.62366532 525.85709123 360.30944153 523 357 C517.17316085 350.23595128 511.51126861 343.34821904 505.90234375 336.40234375 C501.57622003 331.0712403 497.14577995 325.8530675 492.625 320.6875 C487.93838371 315.32700005 483.46035337 309.85292599 479.10961914 304.2175293 C475.26157031 299.2599937 471.20659959 294.50116677 467.05834961 289.79272461 C461.47123156 283.39640483 457.59572804 278.05167465 457.72265625 269.3359375 C458.16244796 265.63177634 459.82905316 262.92427224 462 260 C462.37769531 259.45988281 462.75539063 258.91976563 463.14453125 258.36328125 C466.39930657 254.14485644 470.38281361 250.93914738 474.5625 247.6875 C475.11671631 247.2546167 475.67093262 246.8217334 476.24194336 246.37573242 C482.70082025 241.48702247 488.00338397 240.0429247 496 241 C505.56379412 244.69128896 511.61958292 254.42950561 517.7734375 262.23828125 C520.42811368 265.53101118 523.17478551 268.7353807 525.9375 271.9375 C532.07875504 279.06594744 538.13886838 286.24915242 543.859375 293.72265625 C544.34978271 294.35945313 544.84019043 294.99625 545.34545898 295.65234375 C546.30242156 296.89835393 547.2527971 298.14945917 548.19555664 299.40625 C552.36789716 304.83498588 552.36789716 304.83498588 556 306 C559 306 559 306 562 305 C574.09453176 289.57232956 573.55748605 267.4954752 572 249 C569.61603194 229.63393848 559.82610816 212.43827904 546 199 C545.07742699 198.02909396 544.1594676 197.05378381 543.24609375 196.07421875 C531.16905741 183.3787282 512.81688293 172.91077945 494.86230469 171.80712891 C462.60417158 171.10289605 462.60417158 171.10289605 450 177 C449.32598145 177.30534668 448.65196289 177.61069336 447.95751953 177.92529297 C424.57079954 188.5973173 406.26594048 204.84608806 396.69042969 229.10742188 C394.67638111 234.62825092 393.2762468 240.26650937 392 246 C391.77441406 246.96679688 391.54882812 247.93359375 391.31640625 248.9296875 C387.60234319 266.6035048 390.92150464 285.9377717 399 302 C399.42925781 302.89460938 399.85851562 303.78921875 400.30078125 304.7109375 C412.30931098 328.32207483 432.33328567 343.6507376 457.109375 352.0546875 C461.67603363 353.30600357 466.24502881 354.04683936 470.93359375 354.66015625 C471.81869629 354.77963623 472.70379883 354.89911621 473.61572266 355.0222168 C475.36929987 355.25161378 477.12561883 355.46122116 478.88427734 355.64770508 C484.70355811 356.38299533 488.70945312 357.92134142 493 362 C494.5234375 364.02734375 494.5234375 364.02734375 495.375 365.9375 C495.67148437 366.56527344 495.96796875 367.19304687 496.2734375 367.83984375 C499.48125853 377.37707509 499.88333495 391.87709911 495.984375 401.23828125 C493.50996074 405.66669724 490.7618937 408.9888172 486 411 C479.10174182 412.59995978 472.19527204 411.7995076 465.25 410.9375 C464.16178955 410.8039209 463.0735791 410.6703418 461.95239258 410.53271484 C424.95671578 405.56262392 389.11687083 386.08140611 366.09765625 356.375 C363.60151585 353.00062266 361.2728236 349.52760104 359 346 C358.28199219 344.8965625 357.56398438 343.793125 356.82421875 342.65625 C352.87818055 336.41392968 349.45476231 330.09807513 346.421875 323.36328125 C344.86157095 320.76991876 343.80160249 320.02366245 341 319 C338.67105837 321.13427389 337.26094098 323.12820578 335.87109375 325.95703125 C335.48107178 326.73312744 335.0910498 327.50922363 334.68920898 328.30883789 C334.27614502 329.13504639 333.86308105 329.96125488 333.4375 330.8125 C326.87009876 343.59004942 318.99577707 354.63514808 309 365 C308.47889648 365.54688477 307.95779297 366.09376953 307.42089844 366.65722656 C300.13624736 374.27470008 292.87513905 381.22611693 284 387 C283.030625 387.65226562 282.06125 388.30453125 281.0625 388.9765625 C247.36492984 410.79573918 206.82744663 416.31144615 167.890625 408.19140625 C141.69983249 401.7580784 119.34498032 388.61012827 100 370 C99.47164551 369.49355957 98.94329102 368.98711914 98.39892578 368.46533203 C92.41280143 362.69655561 86.58758283 356.97405268 82 350 C81.64228516 349.46987305 81.28457031 348.93974609 80.91601562 348.39355469 C64.21237048 323.49947484 56.79113337 296.81262834 54.64575195 267.07202148 C54.57445068 266.08403564 54.50314941 265.0960498 54.4296875 264.078125 C54.37022949 263.19543945 54.31077148 262.31275391 54.24951172 261.40332031 C54.01865665 259.17970258 53.60421251 257.14872684 53 255 C49.78841468 256.03280056 48.97427562 257.04302375 47.2109375 259.9921875 C46.58720651 261.28083607 45.97608096 262.57563201 45.375 263.875 C44.67481383 265.32698435 43.97427628 266.77879929 43.2734375 268.23046875 C43.08958496 268.61678467 43.08958496 268.61678467 42.15917969 270.57177734 C36.33431983 282.77355834 30.30365276 294.61243454 23 306 C22.23121893 307.2597982 21.4657502 308.52162206 20.703125 309.78515625 C14.71226204 319.65999268 8.08535147 328.88465376 1 338 C0.51853516 338.62181152 0.03707031 339.24362305 -0.45898438 339.88427734 C-3.19586849 343.41366303 -5.95625583 346.92318092 -8.74023438 350.41552734 C-9.92267561 351.90274509 -11.09453303 353.3983603 -12.265625 354.89453125 C-16.7157424 360.48919324 -21.45889913 365.55034635 -26.56933594 370.52880859 C-29.70097496 373.60795651 -32.49376103 376.76950169 -35.1875 380.25 C-41.07242087 387.68472508 -48.1993768 393.88168324 -55.16088867 400.28564453 C-57.49993306 402.46602017 -59.7484859 404.72969196 -62 407 C-84.16829085 428.25898331 -84.16829085 428.25898331 -95.28125 429.19140625 C-104.09329257 428.69346549 -109.39216288 423.86613229 -115.1875 417.625 C-122.01792792 409.82780382 -126.42336859 404.36766986 -126.26953125 393.7109375 C-125.23713668 383.32714282 -110.78114764 373.94478923 -103.18774414 367.6796875 C-95.65492806 361.44764005 -88.59363041 354.88068558 -81.72265625 347.9284668 C-80.10999116 346.29731914 -78.48923938 344.674543 -76.8671875 343.05273438 C-71.37218576 337.53920292 -66.03345132 331.94236339 -61 326 C-60.57138672 325.51208984 -60.57138672 325.51208984 -58.40234375 323.04296875 C-26.91315243 286.5634143 -2.71057247 243.89973487 9 197 C9.12205811 196.54149658 9.12205811 196.54149658 9.73974609 194.22119141 C17.63365385 163.764341 18.37063435 125.89182843 8 96 C7.74379883 95.2359082 7.48759766 94.47181641 7.22363281 93.68457031 C5.72804753 89.32684535 3.9869176 85.16206949 2 81 C1.55140625 80.03578125 1.1028125 79.0715625 0.640625 78.078125 C-5.50284142 65.86021988 -14.59107749 55.08311731 -27.3125 49.5625 C-37.31160199 48.03721326 -47.51065265 47.99570372 -56.3359375 53.44140625 C-65.10775115 59.89303028 -71.16637223 68.08079795 -77.0546875 77.12109375 C-80.22964615 81.81977754 -83.50890817 86.38415665 -88.3125 89.5 C-99.59496162 91.59906263 -106.90570583 88.06045016 -116.2890625 81.80859375 C-122.46822087 77.36591419 -127.51250287 73.46249139 -130 66 C-131.45714653 49.09710028 -115.62089168 32.28421666 -105.33984375 20.01953125 C-79.61876705 -7.67502959 -33.97288229 -16.89487003 0 0 Z M167 177 C165.99324219 177.40605469 164.98648438 177.81210938 163.94921875 178.23046875 C140.78547659 188.78564208 123.35060238 210.22969113 114.4765625 233.61328125 C106.46156059 256.34261686 108.66260345 281.21066107 118.6875 302.9375 C123.91357741 313.64222552 130.8556412 324.26109712 140 332 C140.91007812 332.77730469 141.82015625 333.55460938 142.7578125 334.35546875 C162.2722703 350.44536669 185.82448143 357.68340373 211 356 C220.9458251 354.98266123 229.9676549 352.32150994 239 348 C239.8146875 347.64292969 240.629375 347.28585937 241.46875 346.91796875 C263.83827632 336.64105974 280.05709503 317.47897726 288.87646484 294.74023438 C297.50208011 271.23745479 296.22678413 246.78138935 285.8125 224.1875 C274.79681407 201.56980207 255.78077403 183.4836652 232 175 C230.95714844 174.5875 229.91429687 174.175 228.83984375 173.75 C209.27701902 167.16041693 185.85297539 169.17560442 167 177 Z " fill="#FFFFFF" transform="translate(175,22)"/>
<path d="M0 0 C0.33467285 0.14373047 0.33467285 0.14373047 2.02832031 0.87109375 C11.65233724 5.05205469 20.52880129 9.75038718 29 16 C29.54188965 16.39525879 30.0837793 16.79051758 30.64208984 17.19775391 C60.61369547 39.22590178 83.11057222 72.3896163 89.40625 109.42895508 C93.48743118 136.5133804 92.21787038 164.1624469 83 190 C82.61972656 191.11761719 82.23945312 192.23523438 81.84765625 193.38671875 C69.38357946 228.17702064 40.83834435 256.47493379 8.18359375 272.671875 C-7.27103743 279.89146874 -23.55386052 284.12712995 -40.4375 286.125 C-41.09814453 286.21136719 -41.75878906 286.29773438 -42.43945312 286.38671875 C-68.90969397 289.554098 -95.26873621 283.47738457 -119 272 C-119.70688965 271.65952637 -120.4137793 271.31905273 -121.14208984 270.96826172 C-135.57164321 263.91976877 -147.29375149 254.99616411 -159 244 C-159.32548828 243.71253906 -159.32548828 243.71253906 -160.97265625 242.2578125 C-168.23259297 235.54945208 -173.53355443 227.16620032 -179 219 C-179.41958984 218.38769531 -179.83917969 217.77539062 -180.27148438 217.14453125 C-185.62061106 209.27556803 -189.41371588 201.07009563 -192.8125 192.1875 C-193.1736792 191.25220459 -193.5348584 190.31690918 -193.90698242 189.35327148 C-200.04339002 172.56482504 -201.72028329 156.60309891 -201.5625 138.8125 C-201.55790771 137.7750766 -201.55331543 136.7376532 -201.54858398 135.66879272 C-201.45686936 120.6225147 -201.01395821 106.33481558 -196 92 C-195.70528809 91.13536133 -195.41057617 90.27072266 -195.10693359 89.37988281 C-188.05979588 69.23159204 -177.33333593 52.04901289 -162.54785156 36.61962891 C-161.48588298 35.50841447 -160.43087542 34.39051806 -159.38183594 33.26708984 C-151.04962003 24.35780346 -142.56721177 17.11265482 -132 11 C-131.57630127 10.75362793 -131.57630127 10.75362793 -129.43212891 9.50683594 C-116.04733944 1.84822301 -103.02276033 -3.57058695 -88 -7 C-86.67833327 -7.33964091 -85.35671518 -7.67947116 -84.03515625 -8.01953125 C-56.94159839 -14.04337812 -25.36506527 -10.9815812 0 0 Z M-88 51 C-88.66837891 51.28407715 -89.33675781 51.5681543 -90.02539062 51.86083984 C-114.87931358 62.6048623 -131.75099844 81.71979397 -142.07666016 106.51416016 C-144.53741906 113.13908008 -145.78783516 120.05891326 -147 127 C-147.19078125 127.89589844 -147.3815625 128.79179687 -147.578125 129.71484375 C-151.24716983 149.58883659 -142.85969563 173.59712007 -132 190 C-128.61456454 194.26379816 -124.84184853 198.14681858 -121 202 C-120.57267578 202.42990234 -120.57267578 202.42990234 -118.41015625 204.60546875 C-117.61480469 205.39566406 -116.81945313 206.18585938 -116 207 C-115.67580078 207.32291016 -115.67580078 207.32291016 -114.03515625 208.95703125 C-96.74843148 225.21682188 -73.40705777 231.84344988 -50.12890625 231.30859375 C-25.59355156 230.20356282 -3.62352399 218.09179563 12.95703125 200.484375 C32.71022742 178.49061093 37.44943758 152.72163466 36 124 C34.36903221 106.84951262 24.8789774 88.28057984 13 76 C12.31679687 75.24074219 11.63359375 74.48148438 10.9296875 73.69921875 C-3.76977655 57.99628575 -25.08251234 46.36346219 -46.76953125 45.43359375 C-49.45518994 45.40589295 -52.1282135 45.40203751 -54.8125 45.4375 C-55.51310547 45.44209229 -56.21371094 45.44668457 -56.93554688 45.45141602 C-67.93896271 45.55046682 -77.86407017 46.48475834 -88 51 Z " fill="#FFFFFF" transform="translate(1191,147)"/>
</svg>
